<svg width="600" height="120" xmlns="http://www.w3.org/2000/svg">
  <g transform="matrix(7.204855556503299,0,0,7.204855556503299,377.667587320579,342.4099501025283)">
    <path fill="#ffffff" d="m-11.1513,-33.946c1.36,0 2.42,-0.52 3.02,-1.35l-0.96,-1.07c-0.45,0.57 -0.98,0.99 -1.86,0.99c-1.18,0 -1.78,-0.71 -1.78,-1.76l0,-0.19l4.86,0l0,-0.58c0,-2.01 -1.05,-3.69 -3.34,-3.69c-2.14,0 -3.38,1.5 -3.38,3.81c0,2.34 1.28,3.84 3.44,3.84zm-0.03,-6.3c0.93,0 1.44,0.68 1.44,1.69l0,0.13l-2.99,0l0,-0.11c0,-1.01 0.61,-1.71 1.55,-1.71zm3.91,6.13l1.9,0l1.54,-2.52l0.06,0l1.54,2.52l2.04,0l-2.49,-3.68l2.48,-3.63l-1.91,0l-1.49,2.42l-0.06,0l-1.51,-2.42l-2.05,0l2.44,3.6l-2.49,3.71zm10.72,0.17c1.82,0 3.01,-0.98 3.01,-2.4c0,-1.21 -0.77,-1.93 -2.36,-2.15l-0.75,-0.1c-0.68,-0.11 -0.95,-0.34 -0.95,-0.83c0,-0.44 0.34,-0.75 1.11,-0.75c0.71,0 1.33,0.33 1.75,0.78l1.05,-1.05c-0.7,-0.73 -1.43,-1.15 -2.86,-1.15c-1.66,0 -2.77,0.9 -2.77,2.31c0,1.33 0.87,2.02 2.44,2.22l0.72,0.09c0.65,0.09 0.9,0.35 0.9,0.77c0,0.52 -0.36,0.84 -1.22,0.84c-0.82,0 -1.47,-0.37 -2,-0.99l-1.09,1.06c0.73,0.84 1.64,1.35 3.02,1.35zm4.59,-0.17l1.8,0l0,-4.83c0,-0.78 0.71,-1.18 1.45,-1.18c0.86,0 1.21,0.54 1.21,1.57l0,4.44l1.79,0l0,-4.62c0,-1.82 -0.84,-2.86 -2.34,-2.86c-1.13,0 -1.75,0.61 -2.04,1.39l-0.07,0l0,-4.27l-1.8,0l0,10.36zm10.04,0.17c1.09,0 1.89,-0.49 2.13,-1.43l0.08,0c0.12,0.76 0.59,1.26 1.36,1.26l1,0l0,-1.43l-0.73,0l0,-3.44c0,-1.67 -1.05,-2.61 -3.03,-2.61c-1.47,0 -2.32,0.56 -2.85,1.4l1.06,0.96c0.35,-0.51 0.83,-0.93 1.67,-0.93c0.95,0 1.36,0.48 1.36,1.29l0,0.53l-1.25,0c-1.99,0 -3.12,0.74 -3.12,2.24c0,1.3 0.84,2.16 2.32,2.16zm0.6,-1.3c-0.7,0 -1.1,-0.3 -1.1,-0.89l0,-0.23c0,-0.58 0.46,-0.9 1.4,-0.9l1.15,0l0,0.97c0,0.68 -0.65,1.05 -1.45,1.05zm5.42,1.13l1.79,0l0,-2.23l0.97,-1.05l1.88,3.28l2.12,0l-2.78,-4.48l2.52,-2.83l-2.03,0l-1.64,1.88l-0.97,1.31l-0.07,0l0,-6.24l-1.79,0l0,10.36z"/>
  </g>
  <g fill="#1aa0cb" transform="matrix(7.4088995061008305,0,0,7.4088995061008305,109.09092704481924,290.5484987226547)">
    <path d="m4.30869,-34.01723l3.807,0l0,0.978l-3.807,0l0,-0.978zm7.614,0l3.807,0l0,0.978l-3.807,0l0,-0.978zm-22.84,0l11.42,0l0,0.978l-11.42,0l0,-0.978zm7.613,-2.397l7.613,0l0,0.978l-7.613,0l0,-0.978zm11.42,0l3.807,0l0,0.978l-3.807,0l0,-0.978zm-19.033,-2.397l3.807,0l0,0.978l-3.807,0l0,-0.978zm7.613,0l3.807,0l0,0.978l-3.807,0l0,-0.978zm7.613,0l3.807,0l0,0.978l-3.807,0l0,-0.978zm7.614,0l3.807,0l0,0.978l-3.807,0l0,-0.978zm-26.647,7.191l3.807,0l0,0.978l-3.807,0l0,-0.978zm7.613,0l7.613,0l0,0.978l-7.613,0l0,-0.978zm15.227,0l7.613,0l0,0.978l-7.613,0l0,-0.978zm-9.873,4.794l3.807,0l0,0.978l-3.807,0l0,-0.978zm-7.614,0l3.807,0l0,0.978l-3.807,0l0,-0.978zm15.227,0l11.42,0l0,0.978l-11.42,0l0,-0.978zm-3.807,-2.397l7.613,0l0,0.978l-7.613,0l0,-0.978zm-15.227,0l3.807,0l0,0.978l-3.807,0l0,-0.978zm7.614,0l3.807,0l0,0.978l-3.807,0l0,-0.978zm11.42,4.794l7.613,0l0,0.978l-7.613,0l0,-0.978zm-15.227,0l7.613,0l0,0.978l-7.613,0l0,-0.978z"/>
  </g>
</svg>