<svg width="630" height="630" xmlns="http://www.w3.org/2000/svg">
 <g>
  <rect x="0" y="0" width="630" height="630" fill="#1aa0cb"/>
    <path fill="#ffffff" d="m200.497352,328.037119l171.572436,0l0,47.433186l-122.47944,0l0,51.881857l107.603365,0l0,46.38026l-107.603365,0l0,54.009154l124.131748,0l0,48.487191l-173.224744,0l0,-248.191657l0,0.000009z" />
    <path fill="#ffffff" d="m402.432055,526.67901l41.351512,-23.941758c10.885252,17.775379 25.032217,30.835109 50.060149,30.835109c21.041385,0 34.461385,-10.520697 34.461385,-25.031148c0,-17.411901 -13.783478,-23.579349 -37.000419,-33.734413l-12.694097,-5.4437c-36.640148,-15.596616 -60.94647,-35.184064 -60.94647,-76.538793c0,-38.088731 29.020902,-67.110702 74.366462,-67.110702c32.283692,0 55.500624,11.246592 72.184483,40.629902l-39.540521,25.392487c-8.705412,-15.596616 -18.13458,-21.764064 -32.643962,-21.764064c-14.87286,0 -24.305244,9.432385 -24.305244,21.764064c0,15.236346 9.432385,21.403802 31.19538,30.836187l12.695174,5.440484c43.167866,18.501283 67.473119,37.362827 67.473119,79.802652c0,45.709047 -35.911037,70.736978 -84.155901,70.736978c-47.157629,-0.001069 -77.630321,-22.489968 -92.501042,-51.873278" />
 </g>
</svg>