<svg width="300" height="80" xmlns="http://www.w3.org/2000/svg">
  <linearGradient gradientTransform="rotate(25)" id="7280f637-1c9e-43c2-9390-80dbd14e4f71" x1="0%" y1="0%" x2="100%" y2="0%">
   <stop offset="0%" stop-color="#0D7CE9"/>
   <stop offset="100%" stop-color="#15CFF1"/>
  </linearGradient>
   <g id="e163e989-c9f9-43e7-b622-ef1b986acfd5" fill="#fbfbfb" transform="matrix(4.842616337584761,0,0,4.842616337584761,135.61077149856084,159.7270463638618) ">
    <path d="m-7.31363,-19.40812c1.36,0 2.42,-0.59 2.97,-1.47l-0.9,-0.88c-0.42,0.67 -1.02,1.09 -1.92,1.09c-1.23,0 -1.92,-0.8 -1.92,-1.92l0,-0.24l5,0l0,-0.57c0,-2.02 -1.09,-3.63 -3.23,-3.63c-2.07,0 -3.35,1.49 -3.35,3.81c0,2.32 1.28,3.81 3.35,3.81zm0,-6.43c1.01,0 1.62,0.74 1.62,1.86l0,0.14l-3.39,0l0,-0.09c0,-1.12 0.72,-1.91 1.77,-1.91zm3.92,6.26l1.62,0l1.75,-2.65l0.04,0l1.68,2.65l1.77,0l-2.54,-3.7l2.5,-3.58l-1.63,0l-1.68,2.53l-0.04,0l-1.64,-2.53l-1.76,0l2.49,3.6l-2.56,3.68zm10.48,0.17c1.75,0 2.89,-0.94 2.89,-2.34c0,-1.18 -0.72,-1.88 -2.31,-2.11l-0.67,-0.09c-0.77,-0.12 -1.12,-0.38 -1.12,-0.94c0,-0.54 0.39,-0.91 1.23,-0.91c0.78,0 1.4,0.38 1.78,0.83l0.93,-0.9c-0.65,-0.72 -1.4,-1.16 -2.71,-1.16c-1.6,0 -2.7,0.83 -2.7,2.24c0,1.35 0.91,1.99 2.39,2.17l0.67,0.09c0.76,0.09 1.04,0.44 1.04,0.91c0,0.61 -0.45,0.98 -1.33,0.98c-0.87,0 -1.53,-0.4 -2.06,-1.04l-0.98,0.9c0.69,0.85 1.58,1.37 2.95,1.37zm4.61,-0.17l1.53,0l0,-4.89c0,-0.84 0.78,-1.24 1.58,-1.24c0.94,0 1.37,0.57 1.37,1.69l0,4.44l1.53,0l0,-4.62c0,-1.79 -0.89,-2.83 -2.37,-2.83c-1.12,0 -1.74,0.59 -2.04,1.37l-0.07,0l0,-4.28l-1.53,0l0,10.36zm14.31,0l0,-1.25l-0.77,0l0,-3.65c0,-1.62 -1.05,-2.55 -2.93,-2.55c-1.41,0 -2.27,0.6 -2.74,1.42l0.91,0.82c0.36,-0.57 0.88,-0.99 1.73,-0.99c1.03,0 1.5,0.52 1.5,1.4l0,0.61l-1.31,0c-2.03,0 -3.11,0.75 -3.11,2.19c0,1.31 0.85,2.17 2.35,2.17c1.06,0 1.85,-0.48 2.13,-1.39l0.07,0c0.1,0.72 0.52,1.22 1.31,1.22l0.86,0zm-3.94,-0.99c-0.75,0 -1.23,-0.34 -1.23,-0.98l0,-0.26c0,-0.63 0.52,-0.98 1.58,-0.98l1.29,0l0,1.05c0,0.72 -0.7,1.17 -1.64,1.17zm5.44,0.99l1.52,0l0,-2.38l1.01,-1.09l2.09,3.47l1.82,0l-2.86,-4.47l2.55,-2.81l-1.78,0l-1.75,1.97l-1.01,1.31l-0.07,0l0,-6.36l-1.52,0l0,10.36z"/>
   </g>
   <g id="1e9ca57e-7336-43b7-b40c-9883a70e1fe6" fill="url(#7280f637-1c9e-43c2-9390-80dbd14e4f71)" transform="matrix(0.9320895583769087,0,0,0.9320895583769087,45.72322899547449,162.60143370560334) ">
    <path d="m-20.33754,-118.51857l-18.002,-9.843l0,-5.455l18.002,-9.803l0,6.422l-12.557,6.039l12.557,6.266l0,6.374zm1.666,4.327l6.503,-34.162l3.785,0l-6.576,34.162l-3.712,0zm11.952,-4.3l0,-6.38l12.572,-6.219l-12.572,-6.153l0,-6.332l18.02,9.804l0,5.41l-18.02,9.87z"/>
    <path d="m-13.52054,-90.24057l-35.534,-20.514l0,-41.033l35.534,-20.515l35.536,20.516l0,41.029l-35.536,20.517zm-31.929,-22.597l31.929,18.434l31.931,-18.434l0,-36.868l-31.931,-18.435l-31.929,18.434l0,36.869z"/>
   </g>
</svg>